<!DOCTYPE svg PUBLIC "-//W3C//DTD SVG 1.1//EN" "http://www.w3.org/Graphics/SVG/1.1/DTD/svg11.dtd">
<!-- Uploaded to: SVG Repo, www.svgrepo.com, Transformed by: SVG Repo Mixer Tools -->
<svg fill="#ffffff" height="256px" width="256px" version="1.1" id="Layer_1" xmlns="http://www.w3.org/2000/svg" xmlns:xlink="http://www.w3.org/1999/xlink" viewBox="-30.7 -30.7 573.04 573.04" xml:space="preserve" stroke="#ffffff" stroke-width="45.536049000000006">
<g id="SVGRepo_bgCarrier" stroke-width="0"/>
<g id="SVGRepo_tracerCarrier" stroke-linecap="round" stroke-linejoin="round" stroke="#ffffff" stroke-width="16.372512"> <g> <g> <path d="M148.32,255.76L386.08,18c4.053-4.267,3.947-10.987-0.213-15.04c-4.16-3.947-10.667-3.947-14.827,0L125.707,248.293 c-4.16,4.16-4.16,10.88,0,15.04L371.04,508.667c4.267,4.053,10.987,3.947,15.04-0.213c3.947-4.16,3.947-10.667,0-14.827 L148.32,255.76z"/> </g> </g> </g>
<g id="SVGRepo_iconCarrier"> <g> <g> <path d="M148.32,255.76L386.08,18c4.053-4.267,3.947-10.987-0.213-15.04c-4.16-3.947-10.667-3.947-14.827,0L125.707,248.293 c-4.16,4.16-4.16,10.88,0,15.04L371.04,508.667c4.267,4.053,10.987,3.947,15.04-0.213c3.947-4.16,3.947-10.667,0-14.827 L148.32,255.76z"/> </g> </g> </g>
</svg>